HIERARCHY
ROOT Hips
{
    OFFSET 0.000000 0.000000 0.000000
    CHANNELS 6 Xposition Yposition Zposition Zrotation Xrotation Yrotation
    JOINT Spine
    {
        OFFSET -0.000000 14.517291 0.000000
        CHANNELS 3 Zrotation Xrotation Yrotation
        JOINT Spine1
        {
            OFFSET -0.000000 37.558300 0.000000
            CHANNELS 3 Zrotation Xrotation Yrotation
            JOINT Neck
            {
                OFFSET -0.000000 37.404057 3.400369
                CHANNELS 3 Zrotation Xrotation Yrotation
                JOINT Head
                {
                    OFFSET -0.000000 24.785618 -3.540803
                    CHANNELS 3 Zrotation Xrotation Yrotation
                    End Site
                    {
                        OFFSET -0.000000 35.408028 0.000000
                    }
                }
            }
            JOINT LeftShoulder
            {
                OFFSET 6.992933 33.973492 -0.192664
                CHANNELS 3 Zrotation Xrotation Yrotation
                JOINT LeftArm
                {
                    OFFSET 21.527611 0.000000 0.000000
                    CHANNELS 3 Zrotation Xrotation Yrotation
                    JOINT LeftForeArm
                    {
                        OFFSET 56.353916 0.000000 0.000000
                        CHANNELS 3 Zrotation Xrotation Yrotation
                        JOINT LeftHand
                        {
                            OFFSET 47.774071 0.000000 0.000000
                            CHANNELS 3 Zrotation Xrotation Yrotation
                            End Site
                            {
                                OFFSET 26.556021 0.000000 0.000000
                            }
                        }
                    }
                }
            }
            JOINT RightShoulder
            {
                OFFSET -7.065357 33.973492 -0.192664
                CHANNELS 3 Zrotation Xrotation Yrotation
                JOINT RightArm
                {
                    OFFSET -21.527611 0.000000 0.000000
                    CHANNELS 3 Zrotation Xrotation Yrotation
                    JOINT RightForeArm
                    {
                        OFFSET -56.353916 0.000000 0.000000
                        CHANNELS 3 Zrotation Xrotation Yrotation
                        JOINT RightHand
                        {
                            OFFSET -47.774071 0.000000 0.000000
                            CHANNELS 3 Zrotation Xrotation Yrotation
                            End Site
                            {
                                OFFSET -26.556021 0.000000 0.000000
                            }
                        }
                    }
                }
            }
        }
    }
    JOINT LeftUpLeg
    {
        OFFSET 17.704014 0.000000 0.000000
        CHANNELS 3 Zrotation Xrotation Yrotation
        JOINT LeftLeg
        {
            OFFSET -0.000000 -81.181816 0.000000
            CHANNELS 3 Zrotation Xrotation Yrotation
            JOINT LeftFoot
            {
                OFFSET -0.000000 -62.821102 0.000000
                CHANNELS 3 Zrotation Xrotation Yrotation
                JOINT LeftToeBase
                {
                    OFFSET -0.000000 -11.507608 26.556021
                    CHANNELS 3 Zrotation Xrotation Yrotation
                    End Site
                    {
                        OFFSET -0.000000 0.000000 7.081605
                    }
                }
            }
        }
    }
    JOINT RightUpLeg
    {
        OFFSET -17.704014 0.000000 0.000000
        CHANNELS 3 Zrotation Xrotation Yrotation
        JOINT RightLeg
        {
            OFFSET -0.000000 -81.181816 0.000000
            CHANNELS 3 Zrotation Xrotation Yrotation
            JOINT RightFoot
            {
                OFFSET -0.000000 -62.821102 0.000000
                CHANNELS 3 Zrotation Xrotation Yrotation
                JOINT RightToeBase
                {
                    OFFSET -0.000000 -11.507608 26.556021
                    CHANNELS 3 Zrotation Xrotation Yrotation
                    End Site
                    {
                        OFFSET -0.000000 0.000000 7.081605
                    }
                }
            }
        }
    }
}
MOTION
Frames:    6
Frame Time:    0.008333
-6.883007    125.387070    -78.331085    -2.616538    -0.060123    43.119373    -0.877339    5.856398    -2.402263    -2.082965    -2.385419    -0.856804    1.788738    6.900891    -18.705368    15.202042    -9.207364    -16.344309    2.284815    9.020850    -15.866145    -32.445530    20.328611    -42.194458    -5.305225    -31.959763    -119.188164    -14.337851    -37.935913    -13.993688    1.014396    9.517655    -5.713526    29.481825    13.055327    41.389561    -11.541071    2.923892    44.216515    -17.165276    2.053227    35.728058    38.040359    -29.256968    9.950661    -83.312119    77.681213    36.715206    2.543541    -36.821018    28.962551    0.000000    0.000000    0.000000    -46.796288    -33.970642    -39.588993    54.171524    64.992882    -43.533813    0.246396    -18.643454    -7.049453    0.000000    0.000000    0.000000    
-6.791761    126.014374    -78.451347    -2.600847    -0.081955    43.014847    -0.930284    5.790458    -2.364592    -2.024915    -2.323478    -0.842700    1.783161    6.914930    -18.696156    15.192705    -9.186773    -16.338610    2.266322    9.048541    -15.833553    -32.407135    20.344439    -42.231594    -5.264008    -32.005573    -119.164902    -14.472650    -37.900219    -14.051523    1.000238    9.517962    -5.739107    29.463326    13.104992    41.408577    -11.573529    2.912177    44.222614    -17.079302    2.077702    35.765930    37.642399    -28.852264    9.914931    -79.610809    77.569389    33.263451    2.698812    -36.798248    29.176922    0.000000    0.000000    0.000000    -46.290974    -33.876892    -39.200714    52.511387    64.567032    -42.141438    0.413882    -18.228119    -7.034608    0.000000    0.000000    0.000000    
-6.683269    126.629662    -78.578835    -2.559356    -0.100006    42.921230    -0.964356    5.731802    -2.352364    -2.023158    -2.272438    -0.838163    1.785310    6.965495    -18.675953    15.205798    -9.178514    -16.314980    2.263921    9.042338    -15.833135    -32.441498    20.330410    -42.171478    -5.305988    -31.920771    -119.183273    -14.422344    -37.888210    -14.029085    0.996594    9.522655    -5.718189    29.492958    13.101590    41.402012    -11.563168    2.940372    44.219940    -17.057461    2.098019    35.829460    37.202377    -28.452847    9.818036    -76.128632    77.368454    30.058607    2.853116    -36.766262    29.406635    0.000000    0.000000    0.000000    -45.808922    -33.748962    -38.858089    50.848663    64.149017    -40.676594    0.501032    -17.854248    -7.109572    0.000000    0.000000    0.000000    
-6.571084    127.232948    -78.697571    -2.526107    -0.123320    42.829731    -0.978050    5.659019    -2.334828    -2.030014    -2.214142    -0.831527    1.757222    6.989668    -18.657869    15.242115    -9.104263    -16.294962    2.240766    9.040977    -15.843428    -32.420734    20.366123    -42.109543    -5.313560    -31.931658    -119.198112    -14.411272    -37.912289    -14.024955    0.981182    9.556041    -5.694797    29.487068    13.165002    41.401169    -11.619477    2.891756    44.216618    -17.025223    2.075920    35.871365    36.774670    -28.062138    9.755925    -72.778961    77.173073    26.975142    3.033287    -36.732159    29.652304    0.000000    0.000000    0.000000    -45.347904    -33.613018    -38.436279    49.434093    63.642799    -39.464012    0.612564    -17.445141    -7.159264    0.000000    0.000000    0.000000    
-6.443225    127.830315    -78.832695    -2.483249    -0.125904    42.732338    -1.004591    5.580251    -2.313002    -2.023997    -2.150917    -0.823274    1.727561    6.984558    -18.640802    15.247798    -9.024457    -16.283688    2.234612    9.050252    -15.848527    -32.439068    20.387199    -42.058289    -5.360233    -31.870731    -119.229759    -14.269936    -37.940392    -13.994640    0.951806    9.579686    -5.703083    29.501673    13.165022    41.422398    -11.581109    2.908792    44.245480    -17.046692    2.072267    35.879009    36.313740    -27.687393    9.687876    -69.556366    76.934395    24.017269    3.015438    -36.853035    29.924267    0.000000    0.000000    0.000000    -44.910034    -33.500893    -38.106182    47.881664    63.223454    -38.202084    0.804878    -17.036283    -7.111455    0.000000    0.000000    0.000000    
-6.321768    128.421005    -78.961601    -2.432433    -0.149795    42.632015    -1.023868    5.522843    -2.282210    -2.026590    -2.092503    -0.812250    1.732790    6.993694    -18.627060    15.208420    -8.968648    -16.285271    2.222940    9.071754    -15.833088    -32.403656    20.424623    -42.065598    -5.287176    -31.980026    -119.197510    -14.508291    -37.902607    -14.115088    0.939554    9.613219    -5.728545    29.486439    13.209669    41.469028    -11.605805    2.886502    44.227230    -17.008423    2.064217    35.917656    35.865791    -27.283865    9.610762    -66.426079    76.649796    21.246908    3.131698    -36.821228    30.071751    0.000000    0.000000    0.000000    -44.457954    -33.363132    -37.717571    46.480606    62.737190    -36.968063    0.927259    -16.634201    -7.213869    0.000000    0.000000    0.000000    
